<svg xmlns="http://www.w3.org/2000/svg" xmlns:xlink="http://www.w3.org/1999/xlink" width="1024" zoomAndPan="magnify" viewBox="0 0 768 767.999994" height="1024" preserveAspectRatio="xMidYMid meet" version="1.2"><defs/><g id="05ef47ef1b"><g style="fill:#000000;fill-opacity:1;"><g transform="translate(-18.013183, 745.557441)"><path style="stroke:none" d="M 406.332031 18.957031 C 354.566406 18.957031 306.011719 9.242188 260.675781 -10.1875 C 215.390625 -29.597656 175.597656 -56.449219 141.300781 -90.746094 C 107.003906 -125.042969 80.148438 -164.835938 60.742188 -210.121094 C 41.3125 -255.460938 31.597656 -304.011719 31.597656 -355.78125 C 31.597656 -407.554688 41.3125 -455.953125 60.746094 -500.976562 C 80.15625 -545.941406 107.007812 -585.566406 141.300781 -619.859375 C 175.59375 -654.152344 215.222656 -681.003906 260.183594 -700.414062 C 305.207031 -719.847656 353.605469 -729.566406 405.378906 -729.566406 C 457.148438 -729.566406 505.703125 -719.851562 551.039062 -700.417969 C 596.324219 -681.011719 636.117188 -654.160156 670.414062 -619.859375 C 704.707031 -585.566406 731.558594 -545.941406 750.964844 -500.976562 C 770.402344 -455.953125 780.117188 -407.554688 780.117188 -355.78125 C 780.117188 -304.011719 770.402344 -255.460938 750.972656 -210.121094 C 731.566406 -164.835938 704.710938 -125.042969 670.414062 -90.746094 C 636.121094 -56.453125 596.492188 -29.601562 551.53125 -10.195312 C 506.507812 9.238281 458.109375 18.957031 406.332031 18.957031 Z M 406.332031 5.84375 C 456.300781 5.84375 502.96875 -3.515625 546.332031 -22.234375 C 589.761719 -40.980469 628.027344 -66.910156 661.140625 -100.019531 C 694.246094 -133.128906 720.171875 -171.550781 738.917969 -215.289062 C 757.640625 -258.976562 767.003906 -305.808594 767.003906 -355.78125 C 767.003906 -405.75 757.644531 -452.414062 738.925781 -495.78125 C 720.179688 -539.207031 694.25 -577.476562 661.140625 -610.585938 C 628.035156 -643.695312 589.609375 -669.621094 545.871094 -688.363281 C 502.183594 -707.085938 455.355469 -716.449219 405.378906 -716.449219 C 355.410156 -716.449219 308.746094 -707.089844 265.378906 -688.371094 C 221.953125 -669.625 183.683594 -643.699219 150.574219 -610.585938 C 117.460938 -577.476562 91.535156 -539.207031 72.789062 -495.78125 C 54.070312 -452.414062 44.710938 -405.75 44.710938 -355.78125 C 44.710938 -305.808594 54.074219 -258.976562 72.796875 -215.289062 C 91.539062 -171.550781 117.46875 -133.128906 150.574219 -100.019531 C 183.679688 -66.914062 222.101562 -40.988281 265.839844 -22.242188 C 309.527344 -3.519531 356.359375 5.84375 406.332031 5.84375 Z M 405.378906 -575.28125 C 366.566406 -575.28125 331.316406 -565.4375 299.625 -545.746094 C 267.835938 -525.992188 242.675781 -499.59375 224.148438 -466.554688 C 205.628906 -433.53125 196.371094 -396.605469 196.371094 -355.78125 C 196.371094 -314.945312 205.632812 -277.851562 224.160156 -244.503906 C 242.679688 -211.171875 267.820312 -184.792969 299.585938 -165.363281 C 331.285156 -145.972656 366.867188 -136.277344 406.332031 -136.277344 C 445.164062 -136.277344 480.429688 -145.972656 512.125 -165.363281 C 543.894531 -184.792969 569.035156 -211.171875 587.554688 -244.503906 C 606.078125 -277.851562 615.34375 -314.945312 615.34375 -355.78125 C 615.34375 -396.589844 605.933594 -433.503906 587.113281 -466.515625 C 568.265625 -499.574219 542.941406 -525.984375 511.132812 -545.746094 C 479.445312 -565.4375 444.195312 -575.28125 405.378906 -575.28125 Z M 405.378906 -588.398438 C 446.6875 -588.398438 484.246094 -577.894531 518.054688 -556.886719 C 551.746094 -535.953125 578.5625 -507.996094 598.503906 -473.011719 C 618.472656 -437.984375 628.457031 -398.90625 628.457031 -355.78125 C 628.457031 -312.679688 618.644531 -273.464844 599.019531 -238.136719 C 579.382812 -202.792969 552.699219 -174.804688 518.96875 -154.171875 C 485.171875 -133.5 447.625 -123.164062 406.332031 -123.164062 C 364.40625 -123.164062 326.542969 -133.5 292.746094 -154.171875 C 259.015625 -174.804688 232.332031 -202.792969 212.695312 -238.136719 C 193.070312 -273.464844 183.253906 -312.679688 183.253906 -355.78125 C 183.253906 -398.890625 193.074219 -437.953125 212.707031 -472.972656 C 232.335938 -507.972656 259 -535.945312 292.703125 -556.886719 C 326.511719 -577.894531 364.070312 -588.398438 405.378906 -588.398438 Z M 405.378906 -588.398438 "/></g></g><g style="fill:#5e17eb;fill-opacity:1;"><g transform="translate(-18.013183, 745.557441)"><path style="stroke:none" d="M 406.328125 12.40625 C 355.460938 12.40625 307.769531 2.867188 263.25 -16.203125 C 218.738281 -35.285156 179.628906 -61.675781 145.921875 -95.375 C 112.222656 -129.082031 85.835938 -168.191406 66.765625 -212.703125 C 47.691406 -257.210938 38.15625 -304.90625 38.15625 -355.78125 C 38.15625 -406.644531 47.691406 -454.175781 66.765625 -498.375 C 85.835938 -542.570312 112.222656 -581.519531 145.921875 -615.21875 C 179.628906 -648.914062 218.582031 -675.300781 262.78125 -694.375 C 306.976562 -713.457031 354.507812 -723 405.375 -723 C 456.25 -723 503.941406 -713.457031 548.453125 -694.375 C 592.960938 -675.300781 632.066406 -648.914062 665.765625 -615.21875 C 699.472656 -581.519531 725.863281 -542.570312 744.9375 -498.375 C 764.007812 -454.175781 773.546875 -406.644531 773.546875 -355.78125 C 773.546875 -304.90625 764.007812 -257.210938 744.9375 -212.703125 C 725.863281 -168.191406 699.472656 -129.082031 665.765625 -95.375 C 632.066406 -61.675781 593.117188 -35.285156 548.921875 -16.203125 C 504.734375 2.867188 457.203125 12.40625 406.328125 12.40625 Z M 405.375 -581.828125 C 365.3125 -581.828125 328.90625 -571.65625 296.15625 -551.3125 C 263.414062 -530.96875 237.503906 -503.785156 218.421875 -469.765625 C 199.347656 -435.742188 189.8125 -397.75 189.8125 -355.78125 C 189.8125 -313.8125 199.347656 -275.65625 218.421875 -241.3125 C 237.503906 -206.976562 263.414062 -179.796875 296.15625 -159.765625 C 328.90625 -139.734375 365.628906 -129.71875 406.328125 -129.71875 C 446.390625 -129.71875 482.796875 -139.734375 515.546875 -159.765625 C 548.296875 -179.796875 574.207031 -206.976562 593.28125 -241.3125 C 612.351562 -275.65625 621.890625 -313.8125 621.890625 -355.78125 C 621.890625 -397.75 612.191406 -435.742188 592.796875 -469.765625 C 573.410156 -503.785156 547.34375 -530.96875 514.59375 -551.3125 C 481.84375 -571.65625 445.4375 -581.828125 405.375 -581.828125 Z M 405.375 -581.828125 "/></g></g><g style="fill:#5e17eb;fill-opacity:1;"><g transform="translate(145.415283, 566.648412)"><path style="stroke:none" d="M 397.34375 0 L 365.53125 -64.921875 L 131.15625 -64.921875 L 99.984375 0 L -3.890625 0 L 251.265625 -492.125 L 507.0625 0 Z M 247.359375 -306.453125 L 174.640625 -155.8125 L 321.375 -155.8125 Z M 247.359375 -306.453125 "/></g></g></g></svg>